<svg width="24" height="20" viewBox="0 0 24 20" fill="none" xmlns="http://www.w3.org/2000/svg">
<path d="M2.9867 1.51963C3.03853 1.4006 3.12398 1.21291 3.17722 1.10226C3.24726 0.955186 3.27948 0.903368 3.29489 0.907592C3.3061 0.910386 3.54565 1.06305 3.82722 1.24654C4.1088 1.43 4.46184 1.66112 4.61174 1.75916C4.76161 1.85718 4.98578 2.00425 5.10904 2.08411C5.23233 2.16533 5.71143 2.47906 6.1737 2.78159C6.63601 3.08272 7.0745 3.36985 7.14734 3.41747C7.22018 3.4651 7.69928 3.77884 8.212 4.11356C8.72473 4.44831 9.56526 4.99876 10.0822 5.33631C10.5977 5.67385 11.0908 5.99597 11.1749 6.05062C11.259 6.10662 11.7576 6.43157 12.2816 6.77474C12.8055 7.11648 13.307 7.44422 13.3953 7.50305C13.4835 7.56046 13.8968 7.83079 14.3129 8.10248C14.7289 8.37421 15.1394 8.64315 15.2235 8.69776C15.3075 8.75377 15.809 9.08154 16.3372 9.42607C16.8653 9.77204 17.3668 10.0998 17.4509 10.1544C17.5349 10.2104 18.0337 10.5353 18.5576 10.8785C19.0815 11.2202 19.583 11.548 19.6713 11.6068C19.7595 11.6642 20.1728 11.9346 20.5889 12.2063L20.6851 12.2691C21.0719 12.5217 21.4632 12.7773 21.5835 12.8562L21.588 12.8591C21.7208 12.9462 22.0219 13.1437 22.2601 13.2988C22.5599 13.4948 22.6972 13.5943 22.6972 13.6111C22.6972 13.6237 22.6818 13.6811 22.6622 13.7371C22.6426 13.7918 22.6005 13.8856 22.5683 13.943C22.5221 14.0257 22.4604 14.0957 22.2839 14.2708C22.1607 14.394 21.9715 14.5719 21.8637 14.6685C21.7558 14.7652 21.5863 14.9108 21.4854 14.9935C21.3846 15.0761 21.1996 15.2218 21.0722 15.317C20.9447 15.4137 20.7373 15.5607 20.6099 15.6462C20.4824 15.7316 20.3129 15.8423 20.2316 15.8927C20.1504 15.9431 19.9837 16.0426 19.8604 16.114C19.7371 16.184 19.4751 16.3227 19.279 16.4207C19.0829 16.5188 18.8055 16.649 18.6627 16.7092C18.5197 16.7695 18.3082 16.8549 18.1933 16.8983C18.0771 16.9417 17.8669 17.016 17.724 17.0636C17.5812 17.1098 17.3766 17.1742 17.2688 17.205C17.1609 17.2359 16.9844 17.2835 16.8765 17.3101C16.7686 17.3367 16.5893 17.3787 16.4773 17.4025C16.3652 17.4263 16.1733 17.4642 16.05 17.4866C15.9267 17.509 15.7026 17.5426 15.5527 17.5622C15.4028 17.5818 15.1786 17.607 15.0553 17.6196C14.9321 17.6308 14.6869 17.6476 14.509 17.656C14.3185 17.6658 14.0131 17.6686 13.7595 17.6644C13.5242 17.6588 13.244 17.649 13.1362 17.6406C13.0283 17.6322 12.8448 17.6168 12.7299 17.6042C12.6136 17.593 12.3866 17.565 12.2255 17.5412C12.0645 17.5188 11.7899 17.4712 11.6162 17.4362C11.4425 17.4011 11.1651 17.3381 10.9998 17.2961C10.8345 17.2541 10.5949 17.1868 10.4675 17.149C10.34 17.1098 10.1704 17.0552 10.0892 17.0286C10.0079 17.0006 9.83566 16.9389 9.70395 16.8885C9.57228 16.8395 9.35233 16.7512 9.21364 16.691C9.07495 16.6322 8.81998 16.5131 8.6463 16.4277C8.47259 16.3423 8.24283 16.2232 8.13497 16.163C8.02708 16.1041 7.84359 15.9977 7.72871 15.9277C7.61244 15.8591 7.4331 15.7456 7.32947 15.6756C7.2258 15.607 7.05767 15.4921 6.95823 15.4207C6.85875 15.3492 6.70047 15.233 6.608 15.1615C6.51554 15.0887 6.36425 14.9669 6.27179 14.8898C6.17932 14.8128 6.02241 14.677 5.92156 14.5887C5.82209 14.4991 5.62037 14.3058 5.47326 14.1601C5.32759 14.0131 5.13425 13.8114 5.04462 13.7119L5.04455 13.7119C4.95631 13.611 4.81905 13.4542 4.74202 13.3618C4.66496 13.2693 4.54869 13.1237 4.48426 13.0396C4.41841 12.9556 4.30632 12.8043 4.23349 12.7035C4.16065 12.6026 4.03736 12.4234 3.96033 12.3043C3.88187 12.1853 3.76978 12.0088 3.71235 11.9121C3.65351 11.8155 3.55965 11.6516 3.50221 11.548C3.44338 11.4443 3.34952 11.2651 3.29069 11.1488C3.23325 11.034 3.13799 10.8323 3.07775 10.7006C3.01892 10.569 2.92366 10.3463 2.86762 10.2034C2.81019 10.0606 2.71352 9.79302 2.65188 9.60817C2.59024 9.42328 2.50759 9.15574 2.46837 9.01289C2.42914 8.87004 2.37031 8.62771 2.33529 8.47366C2.30166 8.3196 2.25824 8.10248 2.23862 7.99043C2.21901 7.87842 2.19379 7.72293 2.18119 7.6445C2.16998 7.56468 2.14757 7.391 2.13356 7.25933C2.11815 7.12629 2.09713 6.91619 2.08733 6.79293C2.07612 6.65427 2.06911 6.34613 2.06911 5.98759C2.07052 5.56599 2.07612 5.32929 2.09433 5.12621C2.10694 4.97215 2.13075 4.74243 2.14616 4.61498C2.16298 4.48753 2.19379 4.27044 2.21761 4.13179C2.24002 3.99313 2.28205 3.77601 2.30867 3.64856C2.33529 3.52111 2.37731 3.34184 2.39973 3.24938C2.42354 3.15695 2.47537 2.96508 2.5174 2.8222C2.55943 2.67935 2.62527 2.46925 2.66449 2.35301C2.70372 2.23816 2.77236 2.05188 2.81439 1.93983C2.85782 1.82778 2.93487 1.6387 2.9867 1.51963Z" fill="#FF002B"/>
<path d="M2.85081 1.00142C2.91945 0.873973 2.98249 0.761923 2.98949 0.753508V0.752111C2.9979 0.74373 3.01471 0.735315 3.02732 0.735315C3.03993 0.735315 3.09876 0.76894 3.159 0.80955C3.21924 0.848763 3.26827 0.887976 3.26827 0.89639C3.26827 0.903375 3.22344 1.00142 3.17021 1.11347C3.11837 1.22552 3.03433 1.40758 2.9867 1.51963C2.93907 1.63165 2.86482 1.81099 2.82279 1.91882C2.78076 2.02668 2.71212 2.21576 2.67009 2.33901C2.62807 2.46227 2.55943 2.67935 2.5174 2.8222C2.47537 2.96508 2.42354 3.15695 2.39973 3.24938C2.37731 3.34184 2.33529 3.52111 2.30867 3.64856C2.28205 3.77601 2.24002 3.99313 2.21761 4.13179C2.19379 4.27044 2.16298 4.48753 2.14616 4.61498C2.13075 4.74243 2.10694 4.97215 2.09433 5.12621C2.07612 5.32929 2.07052 5.56599 2.06911 5.98759C2.06911 6.34613 2.07612 6.65427 2.08733 6.79293C2.09714 6.91619 2.11814 7.1263 2.13355 7.25794C2.14756 7.39101 2.16997 7.56469 2.18118 7.64312C2.19379 7.72294 2.21901 7.87842 2.23862 7.99043C2.25824 8.10248 2.30166 8.3196 2.33529 8.47366C2.37031 8.62771 2.42914 8.87004 2.46837 9.01289C2.50759 9.15574 2.59024 9.42328 2.65188 9.60817C2.71352 9.79302 2.81019 10.0606 2.86762 10.2034C2.92366 10.3463 3.01892 10.569 3.07775 10.7006C3.13799 10.8323 3.23325 11.0326 3.29069 11.1488C3.34952 11.2637 3.44338 11.4443 3.50221 11.548C3.55965 11.6516 3.65351 11.8155 3.71235 11.9121C3.76978 12.0088 3.88187 12.1853 3.96033 12.3043C4.03736 12.4234 4.16065 12.6026 4.23349 12.7035C4.30632 12.8043 4.41841 12.9556 4.48426 13.0396C4.54869 13.1237 4.66496 13.2693 4.74202 13.3618C4.81905 13.4542 4.95635 13.6111 5.04462 13.7119C5.13425 13.8114 5.32759 14.0131 5.47326 14.1601C5.62037 14.3058 5.82209 14.4991 5.92156 14.5887C6.02241 14.677 6.17932 14.8128 6.27179 14.8898C6.36425 14.9669 6.51554 15.0887 6.608 15.1615C6.70047 15.233 6.85875 15.3492 6.95823 15.4207C7.05767 15.4921 7.2258 15.607 7.32947 15.6756C7.4331 15.7456 7.61383 15.8591 7.72871 15.9277C7.84499 15.9977 8.02708 16.1041 8.13497 16.163C8.24283 16.2232 8.47259 16.3423 8.6463 16.4277C8.81998 16.5131 9.07495 16.6322 9.21364 16.691C9.35233 16.7512 9.57228 16.8395 9.70395 16.8885C9.83566 16.9389 10.0079 17.0006 10.0892 17.0286C10.1704 17.0552 10.34 17.1098 10.4675 17.149C10.5949 17.1868 10.8345 17.2541 10.9998 17.2961C11.1651 17.3381 11.4425 17.4011 11.6162 17.4362C11.7899 17.4712 12.0645 17.5188 12.2255 17.5412C12.3866 17.565 12.615 17.593 12.7299 17.6042C12.8462 17.6168 13.0283 17.6322 13.1362 17.6406C13.244 17.649 13.5242 17.6588 13.7595 17.6644C14.0131 17.6686 14.3185 17.6658 14.509 17.656C14.6869 17.6476 14.9321 17.6308 15.0553 17.6196C15.1786 17.607 15.4028 17.5818 15.5527 17.5622C15.7026 17.5426 15.9267 17.509 16.05 17.4866C16.1733 17.4642 16.3652 17.4263 16.4773 17.4025C16.5893 17.3787 16.7686 17.3367 16.8765 17.3101C16.9844 17.2835 17.1609 17.2359 17.2688 17.205C17.3766 17.1742 17.5812 17.1098 17.724 17.0636C17.8669 17.016 18.0785 16.9417 18.1933 16.8983C18.3096 16.8549 18.5197 16.7695 18.6627 16.7092C18.8055 16.649 19.0829 16.5188 19.279 16.4207C19.4751 16.3227 19.7371 16.184 19.8604 16.114C19.9837 16.0426 20.1504 15.9431 20.2316 15.8927C20.3129 15.8423 20.4824 15.7316 20.6099 15.6462C20.7373 15.5607 20.9447 15.4137 21.0722 15.317C21.1996 15.2218 21.3846 15.0761 21.4854 14.9935C21.5863 14.9108 21.7558 14.7652 21.8637 14.6685C21.9715 14.5719 22.1607 14.394 22.2839 14.2708C22.4604 14.0957 22.5206 14.0257 22.5683 13.943C22.6005 13.8856 22.6439 13.7876 22.6664 13.7259C22.6916 13.6517 22.7126 13.6139 22.7252 13.6153C22.7364 13.6167 22.8583 13.6895 22.9956 13.7806C23.1315 13.8702 23.2435 13.9514 23.2435 13.9598C23.2449 13.9696 23.1693 14.0593 23.0782 14.1601C22.9858 14.261 22.8177 14.4332 22.7028 14.5453C22.5879 14.6573 22.4184 14.8184 22.326 14.9025C22.2335 14.9851 22.0598 15.1363 21.9407 15.2358C21.8216 15.3352 21.5905 15.5159 21.4294 15.6378C21.2683 15.7582 21.0119 15.9403 20.862 16.0397C20.7121 16.1406 20.4978 16.2778 20.3857 16.3451C20.2737 16.4123 20.0719 16.5299 19.9374 16.6042C19.8029 16.6798 19.5942 16.7891 19.4751 16.8493C19.3561 16.9095 19.1768 16.9964 19.0759 17.0412C18.975 17.0874 18.7957 17.1658 18.6766 17.2163C18.5576 17.2667 18.346 17.3493 18.2074 17.4025C18.0687 17.4544 17.8291 17.5384 17.675 17.5888C17.5209 17.6392 17.294 17.7093 17.1707 17.7443C17.0474 17.7793 16.8583 17.8297 16.7504 17.8563C16.6425 17.8829 16.4506 17.9278 16.3231 17.9544C16.1957 17.981 15.9631 18.0258 15.8048 18.0524C15.6465 18.079 15.4196 18.1141 15.3005 18.1295C15.1814 18.1462 14.9503 18.1715 14.7892 18.1855C14.6281 18.2009 14.3437 18.2205 14.1588 18.2303C13.95 18.2401 13.6558 18.2429 13.3813 18.2387C13.1389 18.2331 12.8111 18.2205 12.6528 18.2079C12.4945 18.1953 12.255 18.1729 12.1205 18.1575C11.986 18.1421 11.7745 18.1141 11.6512 18.0958C11.5279 18.0776 11.3388 18.0454 11.2309 18.0258C11.1231 18.0062 10.9619 17.974 10.8737 17.9544C10.7854 17.9348 10.5991 17.89 10.4604 17.8563C10.3217 17.8213 10.1326 17.7709 10.0402 17.7443C9.9477 17.7177 9.7992 17.6729 9.71096 17.6448C9.62269 17.6168 9.4392 17.5552 9.3047 17.5076C9.1702 17.4585 8.96568 17.3815 8.84941 17.3353C8.73453 17.2891 8.56361 17.219 8.47118 17.1784C8.37872 17.1378 8.18399 17.0468 8.03688 16.9768C7.88981 16.9053 7.65726 16.7863 7.51857 16.7092C7.37988 16.6336 7.18794 16.5244 7.09129 16.4669C6.99464 16.4095 6.80552 16.2904 6.67102 16.2022C6.53656 16.1126 6.35024 15.9865 6.25778 15.9207C6.16532 15.8549 6.007 15.7372 5.90756 15.6602L5.89285 15.6486C5.79484 15.5713 5.66599 15.4697 5.59934 15.4151C5.5293 15.3577 5.39762 15.2442 5.30516 15.163C5.2127 15.0817 5.00819 14.8885 4.85127 14.7344C4.69578 14.5803 4.48705 14.366 4.38757 14.2582C4.28952 14.1503 4.13823 13.9767 4.05135 13.873C3.96451 13.7694 3.8034 13.5649 3.69415 13.4178C3.58486 13.2708 3.44058 13.0733 3.37615 12.9766C3.3103 12.88 3.20383 12.7161 3.13799 12.6125C3.07355 12.5088 2.96428 12.3253 2.89563 12.2063C2.82699 12.0872 2.70791 11.8631 2.62947 11.7091C2.55102 11.555 2.45015 11.3477 2.40672 11.2469C2.3619 11.146 2.27784 10.9485 2.22041 10.8057C2.16297 10.6628 2.07191 10.4177 2.01868 10.2594C1.96404 10.1012 1.8898 9.86587 1.85197 9.73423C1.81415 9.60256 1.76792 9.4331 1.74831 9.35604C1.7301 9.27901 1.69227 9.11514 1.66425 8.99188C1.63764 8.86865 1.59561 8.65716 1.5732 8.52269C1.54938 8.38822 1.51856 8.17673 1.50315 8.0535C1.48634 7.93024 1.46393 7.73135 1.45272 7.61228C1.44151 7.49325 1.4247 7.20891 1.41489 6.98202C1.40229 6.66409 1.40229 6.482 1.41489 6.19068C1.4247 5.98198 1.44151 5.70888 1.45272 5.5814C1.46393 5.45395 1.48634 5.24947 1.50175 5.12621C1.51716 5.00295 1.54938 4.79146 1.5732 4.65702C1.59561 4.52256 1.63063 4.33627 1.65024 4.24384C1.66986 4.15138 1.71048 3.97491 1.7413 3.85165C1.77212 3.72842 1.80995 3.57995 1.82535 3.52252C1.84077 3.46511 1.88559 3.31385 1.92482 3.18636C1.96404 3.05891 2.03549 2.84183 2.08592 2.70317C2.13635 2.56451 2.21621 2.35302 2.26524 2.23395C2.31427 2.11491 2.39972 1.91602 2.45436 1.79276C2.51039 1.6695 2.59304 1.49303 2.63927 1.4006C2.6855 1.30817 2.78076 1.12887 2.85081 1.00142Z" fill="white"/>
<path d="M1.80014 0.126042C1.83796 0.0644291 1.87579 0.00980402 1.88279 0.00420315C1.8912 -0.00140105 1.90521 -0.00140105 1.91361 0.00420315C1.92202 0.0084038 2.16857 0.169479 2.46136 0.361352C2.75415 0.553225 2.9951 0.712903 2.9979 0.718524C2.9993 0.724112 2.95027 0.819366 2.88863 0.931417C2.82699 1.04347 2.72613 1.23255 2.66589 1.35158C2.60425 1.47065 2.51039 1.6695 2.45436 1.79276C2.39972 1.91602 2.31427 2.11491 2.26524 2.23395C2.21621 2.35302 2.13635 2.56451 2.08592 2.70317C2.03549 2.84183 1.96404 3.05891 1.92482 3.18636C1.88559 3.31385 1.84077 3.46511 1.82535 3.52252C1.80995 3.57995 1.77212 3.72842 1.7413 3.85165C1.71048 3.97491 1.66986 4.15138 1.65024 4.24384C1.63063 4.33627 1.59561 4.52256 1.5732 4.65702C1.54938 4.79146 1.51716 5.00295 1.50175 5.12621C1.48634 5.24947 1.46393 5.45395 1.45272 5.5814C1.44151 5.70888 1.4247 5.98198 1.41489 6.19068C1.40229 6.482 1.40229 6.66409 1.41489 6.98202C1.4247 7.20891 1.44151 7.49325 1.45272 7.61228C1.46393 7.73135 1.48634 7.93024 1.50315 8.0535C1.51856 8.17673 1.54938 8.38822 1.5732 8.52269C1.59561 8.65716 1.63764 8.86865 1.66425 8.99188C1.69227 9.11514 1.7301 9.27901 1.74831 9.35604C1.76792 9.4331 1.81415 9.60256 1.85197 9.73423C1.8898 9.86587 1.96404 10.1012 2.01868 10.2594C2.07191 10.4177 2.16297 10.6628 2.22041 10.8057C2.27784 10.9485 2.3619 11.146 2.40672 11.2469C2.45015 11.3477 2.55102 11.555 2.62947 11.7091C2.70791 11.8631 2.82699 12.0872 2.89563 12.2063C2.96428 12.3253 3.07355 12.5088 3.13799 12.6125C3.20383 12.7161 3.3103 12.88 3.37615 12.9766C3.44058 13.0733 3.58486 13.2708 3.69415 13.4178C3.8034 13.5649 3.96451 13.7694 4.05135 13.873C4.13823 13.9767 4.28952 14.1503 4.38757 14.2582C4.48705 14.366 4.69578 14.5803 4.85127 14.7344C5.00819 14.8885 5.2127 15.0817 5.30516 15.163C5.39762 15.2442 5.5293 15.3577 5.59934 15.4151C5.66599 15.4697 5.79484 15.5713 5.89285 15.6486L5.90756 15.6602C6.007 15.7372 6.16532 15.8549 6.25778 15.9207C6.35024 15.9865 6.53656 16.1126 6.67102 16.2022C6.80552 16.2904 6.99464 16.4095 7.09129 16.4669C7.18794 16.5244 7.37988 16.6336 7.51857 16.7092C7.65726 16.7863 7.88981 16.9053 8.03688 16.9768C8.18399 17.0468 8.37872 17.1378 8.47118 17.1784C8.56361 17.219 8.73453 17.2891 8.84941 17.3353C8.96568 17.3815 9.1702 17.4585 9.3047 17.5076C9.4392 17.5552 9.62269 17.6168 9.71096 17.6448C9.7992 17.6729 9.9477 17.7177 10.0402 17.7443C10.1326 17.7709 10.3217 17.8213 10.4604 17.8563C10.5991 17.89 10.7854 17.9348 10.8737 17.9544C10.9619 17.974 11.1231 18.0062 11.2309 18.0258C11.3388 18.0454 11.5279 18.0776 11.6512 18.0958C11.7745 18.1141 11.986 18.1421 12.1205 18.1575C12.255 18.1729 12.4945 18.1953 12.6528 18.2079C12.8111 18.2205 13.1389 18.2331 13.3813 18.2387C13.6558 18.2429 13.95 18.2401 14.1588 18.2303C14.3437 18.2205 14.6281 18.2009 14.7892 18.1855C14.9503 18.1715 15.1814 18.1462 15.3005 18.1295C15.4196 18.1141 15.6465 18.079 15.8048 18.0524C15.9631 18.0258 16.1957 17.981 16.3231 17.9544C16.4506 17.9278 16.6425 17.8829 16.7504 17.8563C16.8583 17.8297 17.0474 17.7793 17.1707 17.7443C17.294 17.7093 17.5209 17.6392 17.675 17.5888C17.8291 17.5384 18.0687 17.4544 18.2074 17.4025C18.346 17.3493 18.5576 17.2667 18.6766 17.2163C18.7957 17.1658 18.975 17.0874 19.0759 17.0412C19.1768 16.9964 19.3561 16.9095 19.4751 16.8493C19.5942 16.7891 19.8029 16.6798 19.9374 16.6042C20.0719 16.5299 20.2737 16.4123 20.3857 16.3451C20.4978 16.2778 20.7121 16.1406 20.862 16.0397C21.0119 15.9403 21.2683 15.7582 21.4294 15.6378C21.5905 15.5159 21.8216 15.3352 21.9407 15.2358C22.0598 15.1363 22.2335 14.9851 22.326 14.9025C22.4184 14.8184 22.6061 14.6392 22.7434 14.5033C22.8807 14.3688 23.0516 14.1937 23.1217 14.1139C23.2001 14.0257 23.2589 13.9725 23.2716 13.9753C23.2828 13.9781 23.4523 14.0859 24 14.4472L23.9762 14.4851C23.9636 14.5075 23.9244 14.5621 23.8893 14.6083C23.8543 14.6546 23.7857 14.7428 23.7353 14.8044C23.6848 14.866 23.5868 14.9865 23.5167 15.0705C23.4453 15.1546 23.3206 15.3002 23.2379 15.3927C23.1553 15.4851 22.9507 15.698 22.784 15.8675C22.6173 16.0355 22.361 16.2792 22.2139 16.4067C22.0668 16.5356 21.8777 16.698 21.7936 16.7681C21.7096 16.8367 21.5485 16.9628 21.4364 17.0482C21.3243 17.1322 21.1674 17.2485 21.0861 17.3059C21.0049 17.3633 20.8634 17.4614 20.771 17.523C20.6785 17.5846 20.537 17.6771 20.4558 17.7275C20.3745 17.7779 20.2176 17.8717 20.1055 17.9376C19.9935 18.0034 19.7833 18.1196 19.6362 18.1981C19.4891 18.2751 19.2538 18.3942 19.1109 18.46C18.968 18.5272 18.7859 18.6099 18.7046 18.6449C18.6234 18.6799 18.4497 18.7513 18.3194 18.8032C18.1891 18.855 17.9902 18.9292 17.8781 18.9684C17.7661 19.009 17.5741 19.0721 17.4509 19.1113C17.3276 19.1505 17.1259 19.2121 17.0026 19.2471C16.8793 19.2822 16.6776 19.334 16.5543 19.3648C16.431 19.3942 16.2391 19.4376 16.127 19.46C16.0149 19.4838 15.8356 19.5175 15.7278 19.5371C15.6199 19.5567 15.421 19.5889 15.2865 19.6085C15.152 19.6267 14.9251 19.6547 14.7822 19.6701C14.6393 19.6855 14.4123 19.7065 14.2779 19.7164C14.1251 19.7275 13.7847 19.7346 13.3743 19.7346C12.9638 19.7346 12.6234 19.7275 12.4707 19.7164C12.3362 19.7065 12.1093 19.6855 11.9664 19.6701C11.8235 19.6561 11.5741 19.6239 11.413 19.6001C11.2519 19.5763 11.0026 19.5357 10.8597 19.5091C10.7168 19.4824 10.4941 19.4348 10.3624 19.4054C10.2307 19.3746 10.0388 19.3284 9.93509 19.3004C9.83142 19.2723 9.67032 19.2275 9.57786 19.2009C9.4854 19.1743 9.3033 19.1169 9.17163 19.0749C9.03992 19.0314 8.83261 18.96 8.70932 18.9152C8.58603 18.8704 8.38152 18.792 8.25403 18.7401C8.12655 18.6883 7.92483 18.6029 7.80573 18.5482C7.68666 18.495 7.46532 18.3886 7.31542 18.3143C7.16556 18.2387 6.96943 18.1379 6.88116 18.0888C6.79292 18.0398 6.63181 17.9488 6.52395 17.8858C6.41606 17.8227 6.27457 17.7373 6.20872 17.6967C6.1429 17.656 5.9762 17.5468 5.83751 17.4544C5.69882 17.3619 5.5153 17.2359 5.43125 17.1729C5.3472 17.1112 5.20711 17.0062 5.12303 16.9417C5.03899 16.8759 4.90312 16.7695 4.82187 16.7036C4.74062 16.6378 4.5711 16.4921 4.44361 16.3801C4.31643 16.2683 4.20321 16.1677 4.19014 16.1561L4.19004 16.156C4.17744 16.1448 4.08079 16.0496 3.97293 15.9459C3.86646 15.8423 3.69834 15.6714 3.5975 15.5678C3.49802 15.4641 3.33411 15.2834 3.23185 15.1686C3.13098 15.0523 2.9923 14.8885 2.92225 14.8044C2.85361 14.7204 2.74574 14.5845 2.6841 14.5033C2.62246 14.422 2.5202 14.2862 2.45856 14.2022C2.39692 14.1181 2.28765 13.9599 2.2148 13.852C2.14056 13.7441 2.02428 13.5649 1.95424 13.4528C1.88419 13.3408 1.77913 13.1643 1.71889 13.0607C1.65865 12.957 1.54798 12.7553 1.47233 12.6125C1.39669 12.4696 1.28462 12.2427 1.22158 12.1083C1.15854 11.9738 1.06607 11.7651 1.01564 11.646C0.965212 11.527 0.88256 11.3211 0.833529 11.1909C0.784498 11.0606 0.701845 10.8295 0.652814 10.6796C0.602383 10.5298 0.526735 10.2875 0.486108 10.1404C0.444082 9.99332 0.385243 9.77062 0.354425 9.64317C0.323605 9.51572 0.273173 9.28603 0.242353 9.13197C0.211534 8.97788 0.169508 8.75099 0.151296 8.62773C0.131683 8.50447 0.103666 8.29999 0.088256 8.17254C0.0728462 8.04509 0.0504321 7.82518 0.0378238 7.68233C0.025216 7.53948 0.0112071 7.24953 0.00420265 7.03806C-0.00140088 6.82657 -0.00140088 6.47641 0.00420265 6.26073C0.0112071 6.04501 0.025216 5.75509 0.0378238 5.61643C0.0490312 5.47777 0.075648 5.23687 0.0938595 5.07999C0.113472 4.92453 0.151296 4.66963 0.176512 4.51275C0.203129 4.3573 0.245156 4.13878 0.268971 4.02673C0.292786 3.91468 0.340416 3.7102 0.375438 3.57154C0.41046 3.43289 0.458091 3.25362 0.480504 3.17236C0.504321 3.09115 0.549148 2.94268 0.579966 2.84323C0.612188 2.74378 0.680832 2.5407 0.731263 2.39503C0.783098 2.24938 0.872755 2.01268 0.93159 1.8698C0.989026 1.72695 1.08569 1.50424 1.14453 1.3726C1.20476 1.24093 1.29442 1.05185 1.34345 0.952404C1.39388 0.852958 1.50175 0.649877 1.583 0.504234C1.66425 0.358558 1.76092 0.187672 1.80014 0.126042Z" fill="#027A3D"/>
<path d="M9.51484 6.59823C9.54986 6.58562 9.6087 6.56883 9.64791 6.56324C9.68576 6.55622 9.73898 6.55064 9.76279 6.54924C9.788 6.54924 9.92669 6.55762 10.071 6.56883C10.2167 6.58004 10.4408 6.60245 10.5725 6.61925C10.7042 6.63465 10.8961 6.65986 10.9998 6.67669C11.1034 6.69209 11.2197 6.7159 11.259 6.7313C11.2968 6.7453 11.357 6.78032 11.3906 6.80973C11.4257 6.83916 11.4649 6.88818 11.4789 6.91898C11.4915 6.94978 11.5041 6.99741 11.5041 7.02402C11.5041 7.05066 11.4915 7.09825 11.4775 7.12908C11.4621 7.15988 11.4229 7.2103 11.3892 7.23973C11.3556 7.27053 11.294 7.31114 11.2519 7.32937C11.2099 7.34756 11.0712 7.39379 10.9438 7.43301C10.8163 7.47082 10.6145 7.52686 10.4955 7.55626C10.3764 7.58567 10.1999 7.62208 10.1032 7.63888C10.0065 7.65571 9.86786 7.66832 9.79502 7.66832C9.72218 7.66832 9.63112 7.6599 9.5919 7.64869C9.55406 7.63888 9.49103 7.6151 9.45182 7.59548C9.41397 7.57585 9.35094 7.52966 9.31313 7.49184C9.27388 7.45263 9.22485 7.38398 9.20104 7.33216C9.16183 7.25094 9.1576 7.22713 9.1576 7.10806C9.1576 6.99461 9.16322 6.96382 9.19406 6.89796C9.21365 6.85596 9.25429 6.79293 9.28509 6.7593C9.31452 6.72571 9.36494 6.68088 9.39577 6.65986C9.42657 6.63887 9.47982 6.61083 9.51484 6.59823Z" fill="black"/>
<path d="M12.3166 8.21875C12.3516 8.19494 12.4077 8.16551 12.4427 8.15433C12.4777 8.14173 12.531 8.13191 12.5618 8.13191C12.5926 8.13191 12.643 8.14312 12.6739 8.15713C12.7047 8.17113 12.7467 8.20053 12.7677 8.22295C12.7887 8.24536 12.8153 8.29156 12.8279 8.32658C12.8391 8.3616 12.849 8.41765 12.849 8.45263C12.849 8.48766 12.8391 8.55068 12.8279 8.59269C12.8167 8.63473 12.7691 8.76777 12.7215 8.88684C12.6739 9.00587 12.5996 9.17955 12.5562 9.27201C12.5127 9.36444 12.4427 9.49611 12.4007 9.56612C12.3587 9.63617 12.2858 9.73279 12.2396 9.78041C12.1835 9.84065 12.1261 9.88405 12.0645 9.91348C11.9832 9.95409 11.9608 9.95828 11.8473 9.95828C11.7423 9.95828 11.7086 9.9527 11.6442 9.9233C11.6022 9.90228 11.5405 9.86027 11.5069 9.82804C11.4747 9.79581 11.4327 9.73701 11.4131 9.69919C11.3934 9.65998 11.371 9.59273 11.3626 9.54793C11.3528 9.49049 11.3528 9.44287 11.3626 9.37705C11.371 9.32662 11.3991 9.24258 11.4257 9.18796C11.4509 9.13335 11.5195 9.02689 11.577 8.94986C11.6358 8.87283 11.7423 8.74957 11.8137 8.67674C11.8865 8.6039 12.0154 8.48067 12.0995 8.40361C12.1849 8.32519 12.2816 8.24257 12.3166 8.21875Z" fill="black"/>
<path d="M14.0495 8.61794C14.0705 8.59692 14.107 8.57031 14.1308 8.5591C14.1546 8.5465 14.2036 8.53668 14.2429 8.53668C14.2863 8.53668 14.3395 8.54929 14.3829 8.56891C14.4236 8.5885 14.4824 8.63473 14.523 8.67814C14.5609 8.72018 14.6197 8.80559 14.6505 8.86582C14.6827 8.92745 14.7626 9.09411 14.8284 9.23699C14.8928 9.37984 14.9811 9.58435 15.0246 9.69218C15.0666 9.80004 15.1268 9.9681 15.159 10.0661C15.1912 10.1656 15.2235 10.2889 15.2305 10.3435C15.2403 10.4093 15.2403 10.4723 15.2305 10.5353C15.2221 10.5886 15.1954 10.6712 15.1702 10.7216C15.1464 10.772 15.0974 10.8407 15.0624 10.8757C15.0273 10.9107 14.9615 10.9555 14.9181 10.9766C14.8747 10.9989 14.8018 11.02 14.757 11.027C14.7135 11.0326 14.6393 11.0326 14.5931 11.0255C14.5468 11.02 14.4768 11.0003 14.439 10.9821C14.3997 10.964 14.3409 10.9247 14.3073 10.8953C14.2723 10.8645 14.2246 10.8085 14.1994 10.7706C14.1756 10.7314 14.142 10.6628 14.1266 10.6166C14.1111 10.5704 14.0789 10.4093 14.0551 10.2594C14.0327 10.1096 14.0005 9.87005 13.9851 9.7272L13.9848 9.72427C13.9694 9.58169 13.9486 9.38899 13.9403 9.293C13.9318 9.19638 13.9277 9.04791 13.9305 8.96387C13.9346 8.83362 13.9417 8.7986 13.9725 8.73278C13.9935 8.69074 14.0285 8.63892 14.0495 8.61794Z" fill="black"/>
</svg>
